<svg style="position: absolute; width: 0; height: 0; overflow: hidden;" version="1.1" xmlns="http://www.w3.org/2000/svg" xmlns:xlink="http://www.w3.org/1999/xlink">
<defs>
<symbol id="icon-logo-stacked-rev" viewBox="0 0 45 32">
<title>logo-stacked-rev</title>
<path d="M44.591 31.236c-0.105 0-0.196 0.013-0.301 0.013-2.123 0.025-3.193 0.025-3.909 0.025 0-0.751 0.039-1.567 0.039-2.318v-1.036c0.221 0 2.789-0.013 3.257-0.013 0.365 0 0.47-0.117 0.47-0.323 0-0.259-0.157-0.325-0.508-0.325-0.652 0.025-2.203 0.039-2.449 0.039h-0.755v-1.605c0-0.595 0-1.243 0.013-1.916h0.795c0.978 0 2.28 0.013 3.257 0.013 0.235-0.013 0.299-0.155 0.299-0.323 0-0.233-0.091-0.35-0.547-0.35-0.873 0-2.164 0.025-3.049 0.025h-0.677c-0.483 0-0.782 0-0.782 0.401 0 1.153-0.013 2.304-0.013 3.444 0 2.538-0.039 3.638-0.039 3.652-0.013 0.194-0.025 0.389-0.025 0.57 0 0.712 0.182 0.739 1.329 0.739h3.336c0.481 0 0.586-0.13 0.586-0.401 0-0.169-0.078-0.311-0.326-0.311v-0.002z"></path>
<path d="M32.19 31.973c0.295 0 0.348-0.209 0.348-0.522l-0.027-7.684c0.455-0.025 1.444-0.025 1.899-0.025 1.471 0 2.475 0.639 2.475 1.944 0 1.579-1.083 2.087-2.488 2.087h-0.742c-0.184 0-0.335 0.147-0.335 0.326s0.15 0.326 0.335 0.326h1.196c0.909 1.24 1.658 2.322 2.434 3.418 0.121 0.13 0.187 0.157 0.335 0.157 0.2 0 0.375-0.182 0.375-0.365 0-0.105-0.067-0.169-0.16-0.301-0.869-1.16-1.525-2.061-2.261-3.092 1.204-0.248 2.034-1.187 2.034-2.544 0-1.488-1.003-2.427-2.621-2.57-0.281-0.027-0.601-0.039-0.923-0.039-0.508 0-1.017 0.013-1.471 0.025-0.522 0.013-0.776 0.13-0.776 0.561 0 0.47 0.013 1.005 0.013 1.461 0 2.988 0.040 4.736-0.027 6.315-0.013 0.339 0.027 0.522 0.387 0.522h-0.002z"></path>
<path d="M7.483 28.413c0 2.291 1.168 3.586 3.125 3.586 2.153 0 3.424-1.385 3.411-3.961l-0.013-4.467c0-0.325-0.13-0.428-0.35-0.428-0.194 0-0.35 0.103-0.35 0.35 0 1.308 0.025 3.897 0.025 4.945 0 1.721-1.141 2.874-2.581 2.874-1.582 0-2.581-0.854-2.581-2.874 0-1.217-0.025-2.551 0.013-4.881 0-0.247-0.091-0.375-0.363-0.375-0.247 0-0.325 0.142-0.325 0.479 0 0.803-0.013 2.913-0.012 4.752v0z"></path>
<path d="M15.281 23.441c0 0.209 0.106 0.339 0.36 0.339 1.401-0.013 2.216-0.013 2.804-0.013 0 0.914 0.013 1.853 0.013 2.766l-0.013 5.009c0 0.365 0.106 0.456 0.347 0.456 0.32 0 0.401-0.169 0.401-0.522-0.027-4.084-0.067-5.401-0.054-6.798v-0.914h2.615c0.374 0 0.547-0.052 0.547-0.365 0-0.235-0.133-0.313-0.467-0.313-0.281 0-2.216 0.025-3.030 0.025-2.282 0-2.736-0.013-3.151-0.013-0.241 0-0.374 0.157-0.374 0.339v0.002z"></path>
<path d="M23.647 23.662c0 0.803-0.013 2.913-0.013 4.751 0 2.291 1.222 3.586 3.273 3.586 2.255 0 3.586-1.385 3.572-3.961l-0.013-4.467c0-0.323-0.136-0.428-0.366-0.428-0.203 0-0.366 0.103-0.366 0.35 0 1.308 0.027 3.897 0.027 4.945 0 1.723-1.195 2.874-2.704 2.874-1.657 0-2.704-0.854-2.704-2.874 0-1.217-0.027-2.551 0.013-4.881 0-0.247-0.096-0.375-0.38-0.375-0.259 0-0.339 0.142-0.339 0.48v0z"></path>
<path d="M3.067 27.933c-0.082 0-0.167 0.002-0.251 0.003v-0.002c-0.187 0-0.338-0.17-0.338-0.383s0.151-0.381 0.338-0.381h0.236l2.384-0.031c0.248 0 0.344 0.187 0.344 0.42 0 0.218-0.138 0.374-0.386 0.389-0.661 0-1.681-0.015-2.33-0.015h0.003zM6.608 23.429c0 0.196-0.108 0.339-0.351 0.353h-0.852c-0.419 0-1.595-0.013-3.408-0.013 0 0.706-0.013 1.476-0.013 2.182v3.306l0.013 2.234c0 0.301-0.054 0.51-0.365 0.51-0.338 0-0.392-0.17-0.392-0.523 0-0.248 0.013-0.719 0.013-0.979 0-0.574 0.013-1.15 0.013-1.724l0.013-3.45-0.027-1.672c0-0.314 0.244-0.535 0.528-0.535 0.217 0 0.595 0.013 0.839 0.013 0.879 0 1.785-0.013 3.164-0.027 0.15 0 0.311-0.013 0.474-0.013 0.244 0 0.351 0.17 0.35 0.339v0z"></path>
<path d="M21.011 16.598c-0.278 0-1.296 0.006-2.119 0.010v0c-0.17 0-0.308-0.17-0.308-0.383s0.138-0.381 0.307-0.383c0.555-0.006 1.584-0.021 2.082-0.045 0.348 0 0.502 0.081 0.502 0.399 0 0.256-0.103 0.399-0.464 0.401v0zM22.182 11.695c0 0.17-0.067 0.314-0.307 0.326-0.999 0-2.331-0.013-3.33-0.013h-0.812c-0.013 0.679-0.013 1.332-0.013 1.933l-0.013 3.293c0 0.758-0.040 1.581-0.040 2.339 0.733 0 1.824 0 3.997-0.025 0.106 0 0.2-0.013 0.307-0.013 0.253 0 0.333 0.144 0.333 0.314 0 0.275-0.106 0.405-0.6 0.405h-3.411c-1.172 0-1.359-0.025-1.359-0.745 0-0.182 0.013-0.378 0.027-0.574 0-0.013 0.040-1.123 0.040-3.684 0-1.15 0.013-2.313 0.013-3.475 0-0.405 0.307-0.405 0.799-0.405h0.692c0.906 0 2.225-0.027 3.118-0.027 0.467 0 0.559 0.118 0.559 0.353z"></path>
<path d="M14.929 20.253c0.221 0 0.351-0.117 0.351-0.338l-0.039-4.013c-0.013-1.572 0-2.624 0-4.091 0-0.311-0.091-0.468-0.351-0.468-0.299 0-0.365 0.169-0.365 0.585 0 0.831 0.025 2.754 0.025 3.702l-0.936 0.013c-0.858 0-1.717 0.013-2.563 0.013-1.235 0.013-1.534 0-1.639 0-0.013-2.364-0.013-2.974-0.013-3.922 0-0.233-0.144-0.338-0.338-0.338-0.221 0-0.377 0.117-0.39 0.377l0.052 3.234c0.025 1.624-0.025 3.299-0.025 4.911 0 0.221 0.182 0.338 0.365 0.338 0.169 0 0.377-0.091 0.377-0.351l-0.025-3.559c1.874 0 3.421-0.039 5.125-0.039l0.013 2.273v1.325c0 0.221 0.144 0.351 0.377 0.351v-0.003z"></path>
<path d="M0 11.695c0 0.209 0.106 0.339 0.36 0.339 1.401-0.013 2.216-0.013 2.802-0.013 0 0.914 0.013 1.853 0.013 2.766l-0.013 5.009c0 0.365 0.106 0.456 0.347 0.456 0.32 0 0.401-0.169 0.401-0.522-0.027-4.084-0.067-5.401-0.054-6.796v-0.914h2.617c0.374 0 0.547-0.052 0.547-0.365 0-0.235-0.133-0.313-0.467-0.313-0.281 0-2.216 0.027-3.030 0.027-2.282 0-2.736-0.013-3.151-0.013-0.241 0-0.374 0.157-0.374 0.339v-0.002z"></path>
<path d="M24.357 0.015c-0.221 0-0.365 0.142-0.365 0.44 0 2.487-0.025 5.012-0.025 7.499 0 0.181-0.013 0.428-0.013 0.609 0 0.22 0.157 0.336 0.351 0.336 0.209 0 0.365-0.117 0.365-0.336v-2.564c0.378-0.402 0.939-0.92 1.395-1.425 0.821 1.011 1.851 2.279 3.038 3.782 0.078 0.103 0.182 0.245 0.287 0.362 0.105 0.13 0.221 0.194 0.351 0.194 0.248 0 0.404-0.181 0.404-0.389 0-0.103-0.052-0.22-0.13-0.298-0.652-0.739-1.017-1.178-1.37-1.606-1.187-1.425-1.709-2.046-2.138-2.512 0.209-0.208 0.404-0.44 0.613-0.661 0.782-0.842 1.773-1.892 2.621-2.887 0.052-0.064 0.078-0.13 0.078-0.194 0-0.194-0.182-0.362-0.378-0.362s-0.248 0.064-0.392 0.233c-1.226 1.437-3.182 3.601-4.369 4.843 0-1.412 0.025-3.16 0.025-4.689 0-0.272-0.105-0.375-0.351-0.375l0.003 0.001z"></path>
<path d="M19.942 0.67c0.833 0 1.394 0.218 1.817 0.411 0.165 0.078 0.287 0.142 0.464 0.154 0.232 0.012 0.356-0.167 0.356-0.386s-0.274-0.347-0.532-0.464c-0.546-0.232-1.285-0.386-1.995-0.386-2.158 0-4.357 1.75-4.357 4.63 0 2.648 2.035 4.281 4.221 4.281 1.256 0 2.799-0.579 2.799-1.105 0-0.167-0.15-0.347-0.287-0.347-0.218 0-0.232 0.078-0.41 0.167-0.519 0.347-1.311 0.592-2.022 0.592-2.171 0-3.551-1.748-3.551-3.665 0-2.262 1.735-3.883 3.496-3.883h0.002z"></path>
<path d="M9.335 5.616c0.639-1.551 1.458-3.622 1.848-4.677 0.338 0.846 1.444 3.882 1.745 4.664-1.25 0.025-2.473 0.025-3.593 0.013zM13.552 5.343c-0.039-0.105-0.091-0.221-0.13-0.326-0.573-1.421-1.38-3.699-1.797-4.703-0.091-0.221-0.196-0.313-0.429-0.313s-0.365 0.117-0.443 0.313c-1.328 3.414-1.51 3.882-1.693 4.313-0.052 0.091-0.664 1.551-1.444 3.4-0.117 0.248-0.182 0.404-0.182 0.547 0 0.248 0.182 0.326 0.39 0.326 0.274 0 0.313-0.235 0.443-0.547 0.182-0.417 0.689-1.785 0.833-2.11h1.394c1.328 0 2.343 0.013 2.695 0.013 0.039 0.13 0.443 1.133 0.86 2.24 0.117 0.274 0.155 0.417 0.443 0.417 0.196 0 0.377-0.169 0.377-0.299 0-0.091-0.039-0.182-0.078-0.287-0.299-0.73-0.769-1.836-1.237-2.983v-0.002z"></path>
<path d="M3.725 4.2c-0.307 0.005-0.655 0.010-0.988 0.015-0.176 0-0.32 0.138-0.32 0.307s0.144 0.307 0.321 0.307v0l1.138-0.013c1.305 0 2.418 0.366 2.418 1.7 0 1.243-1.099 1.753-2.472 1.753-0.769 0-1.91 0-2.212-0.013 0 0-0.042-7.35-0.055-7.532 0.44-0.025 1.47-0.039 1.936-0.039 1.139 0 2.198 0.432 2.212 1.557s-0.715 1.935-1.978 1.962v-0.002zM6.445 2.291c-0.013-1.595-1.401-2.288-2.911-2.288-0.453 0-1.428-0.013-2.047 0.039-0.453 0.039-0.659 0.209-0.659 0.471 0 0.301 0.013 0.523 0.013 0.837l0.027 3.596-0.013 3.296c0 0.366 0.096 0.667 0.549 0.667h0.962c0.797 0 1.566 0.025 2.307-0.052 1.428-0.144 2.349-0.994 2.349-2.419 0-1.138-0.728-1.791-1.854-2.067 0.728-0.353 1.29-1.059 1.277-2.079l0.002-0.002z"></path>
</symbol>
<symbol id="icon-logo-inline" viewBox="0 0 320 32">
<title>logo-inline</title>
<path d="M318.721 25.006c-0.316 0-0.591 0.040-0.906 0.040-6.417 0.079-9.645 0.079-11.811 0.079 0-2.313 0.118-4.825 0.118-7.138v-3.191c0.669 0 8.425-0.040 9.842-0.040 1.103 0 1.418-0.359 1.418-0.997 0-0.798-0.473-0.997-1.535-0.997-1.968 0.080-6.654 0.119-7.401 0.119h-2.283v-4.945c0-1.834 0-3.828 0.039-5.902h2.402c2.953 0 6.889 0.040 9.842 0.040 0.709-0.040 0.906-0.479 0.906-0.997 0-0.718-0.275-1.077-1.654-1.077-2.637 0-6.535 0.080-9.212 0.080h-2.047c-1.457 0-2.362 0-2.362 1.236 0 3.55-0.040 7.099-0.040 10.608 0 7.817-0.118 11.207-0.118 11.247-0.040 0.598-0.079 1.196-0.079 1.754 0 2.194 0.551 2.274 4.015 2.274h10.079c1.457 0 1.772-0.399 1.772-1.236 0-0.519-0.237-0.957-0.984-0.957z"></path>
<path d="M281.252 27.37c0.889 0 1.051-0.643 1.051-1.608l-0.081-23.672c1.373-0.080 4.364-0.080 5.737-0.080 4.445 0 7.475 1.969 7.475 5.988 0 4.863-3.273 6.43-7.516 6.43h-2.242c-0.558 0-1.010 0.45-1.010 1.005s0.453 1.005 1.010 1.005h3.616c2.748 3.818 5.011 7.154 7.354 10.53 0.364 0.402 0.566 0.482 1.011 0.482 0.606 0 1.132-0.562 1.132-1.125 0-0.321-0.202-0.523-0.485-0.925-2.627-3.577-4.606-6.35-6.829-9.525 3.637-0.764 6.142-3.658 6.142-7.837 0-4.582-3.031-7.476-7.92-7.918-0.848-0.081-1.818-0.121-2.788-0.121-1.536 0-3.071 0.040-4.445 0.080-1.576 0.041-2.344 0.402-2.344 1.728 0 1.447 0.041 3.095 0.041 4.502 0 9.203 0.121 14.589-0.081 19.452-0.041 1.045 0.081 1.608 1.172 1.608z"></path>
<path d="M206.607 16.232c0 7.059 3.527 11.048 9.444 11.048 6.506 0 10.347-4.267 10.307-12.204l-0.039-13.759c0-0.997-0.392-1.316-1.058-1.316-0.588 0-1.058 0.319-1.058 1.077 0 4.029 0.079 12.005 0.079 15.235 0 5.304-3.449 8.853-7.799 8.853-4.781 0-7.799-2.632-7.799-8.853 0-3.749-0.079-7.857 0.039-15.036 0-0.758-0.274-1.157-1.097-1.157-0.744 0-0.979 0.439-0.979 1.476 0 2.473-0.039 8.973-0.039 14.637z"></path>
<path d="M230.165 1.085c0 0.643 0.323 1.045 1.089 1.045 4.234-0.040 6.694-0.040 8.469-0.040 0 2.814 0.040 5.707 0.040 8.52l-0.040 15.433c0 1.125 0.322 1.407 1.048 1.407 0.968 0 1.21-0.522 1.21-1.607-0.080-12.579-0.201-16.639-0.161-20.939v-2.814h7.904c1.129 0 1.654-0.161 1.654-1.125 0-0.724-0.404-0.965-1.411-0.965-0.847 0-6.694 0.080-9.154 0.080-6.896 0-8.267-0.040-9.517-0.040-0.726 0-1.129 0.483-1.129 1.045z"></path>
<path d="M255.443 1.596c0 2.473-0.041 8.973-0.041 14.637 0 7.059 3.693 11.048 9.889 11.048 6.812 0 10.834-4.268 10.792-12.204l-0.041-13.759c0-0.997-0.41-1.316-1.108-1.316-0.615 0-1.108 0.319-1.108 1.077 0 4.029 0.082 12.005 0.082 15.235 0 5.305-3.611 8.854-8.166 8.854-5.006 0-8.166-2.632-8.166-8.854 0-3.749-0.082-7.857 0.041-15.035 0-0.758-0.287-1.157-1.149-1.157-0.78 0-1.026 0.438-1.026 1.476z"></path>
<path d="M193.265 14.924c-0.25 0-0.505 0.006-0.757 0.008v-0.004c-0.565 0-1.022-0.527-1.022-1.178 0-0.65 0.458-1.177 1.022-1.177h0.715l7.204-0.096c0.749 0 1.041 0.575 1.041 1.296 0 0.672-0.416 1.151-1.166 1.199-1.999 0-5.080-0.048-7.037-0.048zM203.963 1.047c0 0.603-0.327 1.046-1.063 1.086h-2.574c-1.266 0-4.82-0.040-10.296-0.040 0 2.173-0.041 4.548-0.041 6.722v10.183l0.041 6.882c0 0.926-0.163 1.57-1.103 1.57-1.021 0-1.185-0.524-1.185-1.61 0-0.765 0.041-2.214 0.041-3.019 0-1.77 0.040-3.542 0.040-5.313l0.041-10.625-0.081-5.152c0-0.966 0.735-1.65 1.593-1.65 0.653 0 1.798 0.041 2.533 0.041 2.655 0 5.393-0.041 9.56-0.081 0.45 0 0.94-0.040 1.43-0.040 0.736 0 1.063 0.523 1.063 1.047z"></path>
<path d="M73.588 0.040c-0.67 0-1.103 0.439-1.103 1.356 0 7.66-0.079 15.44-0.079 23.101 0 0.559-0.039 1.317-0.039 1.875 0 0.678 0.473 1.038 1.064 1.038 0.63 0 1.103-0.359 1.103-1.038v-7.9c1.142-1.237 2.836-2.833 4.216-4.389 2.482 3.112 5.594 7.022 9.18 11.65 0.237 0.318 0.551 0.758 0.867 1.117 0.316 0.399 0.67 0.598 1.064 0.598 0.749 0 1.222-0.558 1.222-1.197 0-0.319-0.158-0.678-0.394-0.918-1.97-2.274-3.073-3.631-4.137-4.948-3.586-4.388-5.162-6.303-6.462-7.74 0.63-0.638 1.221-1.356 1.852-2.035 2.364-2.594 5.358-5.825 7.919-8.897 0.158-0.2 0.237-0.399 0.237-0.598 0-0.598-0.552-1.117-1.143-1.117s-0.749 0.2-1.182 0.718c-3.704 4.429-9.614 11.092-13.199 14.922 0-4.349 0.079-9.735 0.079-14.443 0-0.838-0.315-1.157-1.064-1.157z"></path>
<path d="M60.247 2.060c2.518 0 4.209 0.674 5.488 1.268 0.495 0.237 0.867 0.436 1.403 0.475 0.702 0.039 1.073-0.515 1.073-1.188s-0.825-1.069-1.609-1.426c-1.651-0.713-3.879-1.189-6.025-1.189-6.52 0-13.164 5.387-13.164 14.259 0 8.16 6.149 13.19 12.752 13.19 3.796 0 8.459-1.782 8.459-3.406 0-0.514-0.454-1.069-0.866-1.069-0.66 0-0.702 0.238-1.238 0.515-1.568 1.069-3.961 1.822-6.107 1.822-6.562 0-10.73-5.387-10.73-11.289 0-6.971 5.241-11.962 10.565-11.962z"></path>
<path d="M28.201 17.297c1.927-4.776 4.405-11.156 5.585-14.407 1.022 2.608 4.365 11.959 5.27 14.367-3.776 0.080-7.473 0.080-10.855 0.040zM40.945 16.454c-0.118-0.321-0.275-0.682-0.393-1.003-1.731-4.374-4.17-11.397-5.428-14.487-0.275-0.682-0.59-0.963-1.298-0.963s-1.101 0.361-1.337 0.963c-4.012 10.514-4.563 11.959-5.113 13.283-0.157 0.281-2.006 4.775-4.366 10.474-0.354 0.763-0.55 1.244-0.55 1.686 0 0.763 0.55 1.003 1.18 1.003 0.826 0 0.944-0.722 1.338-1.685 0.55-1.284 2.084-5.498 2.517-6.501h4.209c4.012 0 7.080 0.040 8.142 0.040 0.118 0.402 1.337 3.491 2.596 6.902 0.354 0.843 0.472 1.284 1.337 1.284 0.59 0 1.14-0.522 1.14-0.923 0-0.281-0.118-0.562-0.235-0.883-0.905-2.247-2.321-5.658-3.737-9.19z"></path>
<path d="M11.252 12.935c-0.926 0.016-1.98 0.033-2.986 0.047-0.535 0.002-0.968 0.423-0.968 0.943 0 0.521 0.435 0.943 0.972 0.943v0.001l3.439-0.040c3.942 0 7.303 1.127 7.303 5.236 0 3.827-3.319 5.398-7.469 5.398-2.323 0-5.768 0-6.681-0.040 0 0-0.124-22.639-0.166-23.203 1.328-0.080 4.44-0.121 5.852-0.121 3.444 0 6.639 1.33 6.681 4.794s-2.158 5.962-5.976 6.043zM19.468 7.054c-0.042-4.915-4.233-7.050-8.797-7.050-1.37 0-4.316-0.040-6.183 0.121-1.37 0.121-1.992 0.644-1.992 1.45 0 0.927 0.042 1.611 0.042 2.578l0.082 11.078-0.041 10.151c0 1.129 0.29 2.055 1.659 2.055h2.905c2.407 0 4.731 0.080 6.972-0.161 4.315-0.444 7.096-3.061 7.096-7.452 0-3.505-2.2-5.518-5.602-6.365 2.2-1.088 3.901-3.262 3.86-6.404z"></path>
<path d="M167.479 16.189c-0.839 0-3.919 0.018-6.401 0.032v-0.001c-0.514 0-0.931-0.527-0.931-1.177 0-0.648 0.415-1.173 0.926-1.177 1.677-0.018 4.785-0.064 6.289-0.14 1.052 0 1.519 0.247 1.519 1.232 0 0.788-0.312 1.232-1.402 1.232zM171.014 1.087c0 0.523-0.201 0.966-0.926 1.006-3.019 0-7.044-0.040-10.062-0.040h-2.455c-0.040 2.093-0.040 4.105-0.040 5.957l-0.040 10.143c0 2.334-0.121 4.87-0.121 7.204 2.214 0 5.514 0 12.074-0.080 0.321 0 0.604-0.040 0.926-0.040 0.765 0 1.006 0.443 1.006 0.966 0 0.846-0.323 1.247-1.811 1.247h-10.303c-3.542 0-4.105-0.080-4.105-2.294 0-0.563 0.041-1.167 0.081-1.771 0-0.040 0.121-3.461 0.121-11.35 0-3.542 0.041-7.124 0.041-10.706 0-1.248 0.925-1.248 2.414-1.248h2.093c2.737 0 6.722-0.081 9.418-0.081 1.409 0 1.691 0.363 1.691 1.087z"></path>
<path d="M149.104 27.45c0.668 0 1.061-0.36 1.061-1.040l-0.118-12.364c-0.039-4.842 0-8.083 0-12.605 0-0.96-0.275-1.44-1.061-1.44-0.904 0-1.1 0.52-1.1 1.8 0 2.561 0.079 8.483 0.079 11.404l-2.83 0.040c-2.594 0-5.187 0.040-7.742 0.040-3.733 0.040-4.637 0-4.951 0-0.039-7.282-0.039-9.163-0.039-12.084 0-0.72-0.432-1.040-1.022-1.040-0.668 0-1.14 0.36-1.179 1.16l0.157 9.964c0.079 5.002-0.078 10.163-0.078 15.125 0 0.68 0.55 1.040 1.1 1.040 0.51 0 1.14-0.28 1.14-1.081l-0.079-10.964c5.659 0 10.335-0.12 15.483-0.12l0.039 7.003v4.081c0 0.68 0.432 1.081 1.14 1.081z"></path>
<path d="M104 1.085c0 0.643 0.323 1.045 1.089 1.045 4.235-0.041 6.694-0.041 8.468-0.041 0 2.813 0.040 5.707 0.040 8.52l-0.040 15.433c0 1.125 0.323 1.407 1.048 1.407 0.968 0 1.21-0.522 1.21-1.608-0.080-12.579-0.201-16.638-0.161-20.938v-2.813h7.904c1.129 0 1.653-0.161 1.653-1.125 0-0.723-0.403-0.965-1.411-0.965-0.847 0-6.694 0.081-9.154 0.081-6.896 0-8.267-0.041-9.517-0.041-0.726 0-1.129 0.482-1.129 1.045z"></path>
</symbol>
<symbol id="icon-logo-stacked" viewBox="0 0 32 32">
<title>logo-stacked</title>
<path d="M30.768 20.888c-0.070 0-0.131 0.009-0.201 0.009-1.42 0.017-2.135 0.017-2.614 0.017 0-0.502 0.026-1.048 0.026-1.55v-0.693c0.148 0 1.865-0.009 2.178-0.009 0.244 0 0.314-0.078 0.314-0.216 0-0.173-0.105-0.217-0.34-0.217-0.436 0.017-1.473 0.026-1.638 0.026h-0.505v-1.073c0-0.398 0-0.831 0.009-1.281h0.532c0.654 0 1.525 0.009 2.178 0.009 0.157-0.009 0.2-0.104 0.2-0.216 0-0.156-0.061-0.234-0.366-0.234-0.584 0-1.447 0.017-2.039 0.017h-0.453c-0.323 0-0.523 0-0.523 0.268 0 0.771-0.009 1.541-0.009 2.303 0 1.697-0.026 2.433-0.026 2.442-0.009 0.13-0.017 0.26-0.017 0.381 0 0.476 0.122 0.494 0.889 0.494h2.231c0.322 0 0.392-0.087 0.392-0.268 0-0.113-0.052-0.208-0.218-0.208z"></path>
<path d="M22.475 21.381c0.197 0 0.233-0.14 0.233-0.349l-0.018-5.139c0.304-0.017 0.966-0.017 1.27-0.017 0.984 0 1.655 0.427 1.655 1.3 0 1.056-0.724 1.396-1.664 1.396h-0.496c-0.123 0-0.224 0.098-0.224 0.218s0.1 0.218 0.224 0.218h0.8c0.608 0.829 1.109 1.553 1.628 2.286 0.081 0.087 0.125 0.105 0.224 0.105 0.134 0 0.251-0.122 0.251-0.244 0-0.070-0.045-0.113-0.107-0.201-0.581-0.776-1.020-1.378-1.512-2.068 0.805-0.166 1.36-0.794 1.36-1.701 0-0.995-0.671-1.623-1.753-1.719-0.188-0.018-0.402-0.026-0.617-0.026-0.34 0-0.68 0.009-0.984 0.017-0.349 0.009-0.519 0.087-0.519 0.375 0 0.314 0.009 0.672 0.009 0.977 0 1.998 0.027 3.167-0.018 4.223-0.009 0.227 0.018 0.349 0.259 0.349z"></path>
<path d="M5.952 19c0 1.532 0.781 2.398 2.090 2.398 1.44 0 2.29-0.926 2.281-2.649l-0.009-2.987c0-0.217-0.087-0.286-0.234-0.286-0.13 0-0.234 0.069-0.234 0.234 0 0.875 0.017 2.606 0.017 3.307 0 1.151-0.763 1.922-1.726 1.922-1.058 0-1.726-0.571-1.726-1.922 0-0.814-0.017-1.706 0.009-3.264 0-0.165-0.061-0.251-0.243-0.251-0.165 0-0.217 0.095-0.217 0.32 0 0.537-0.009 1.948-0.009 3.177z"></path>
<path d="M11.167 15.675c0 0.14 0.071 0.227 0.241 0.227 0.937-0.009 1.482-0.009 1.875-0.009 0 0.611 0.009 1.239 0.009 1.85l-0.009 3.35c0 0.244 0.071 0.305 0.232 0.305 0.214 0 0.268-0.113 0.268-0.349-0.018-2.731-0.045-3.612-0.036-4.546v-0.611h1.749c0.25 0 0.366-0.035 0.366-0.244 0-0.157-0.089-0.209-0.312-0.209-0.188 0-1.482 0.017-2.026 0.017-1.526 0-1.83-0.009-2.107-0.009-0.161 0-0.25 0.105-0.25 0.227z"></path>
<path d="M16.762 15.823c0 0.537-0.009 1.948-0.009 3.177 0 1.532 0.817 2.398 2.189 2.398 1.508 0 2.398-0.926 2.389-2.649l-0.009-2.987c0-0.216-0.091-0.286-0.245-0.286-0.136 0-0.245 0.069-0.245 0.234 0 0.875 0.018 2.606 0.018 3.307 0 1.152-0.799 1.922-1.808 1.922-1.108 0-1.808-0.571-1.808-1.922 0-0.814-0.018-1.706 0.009-3.264 0-0.165-0.064-0.251-0.254-0.251-0.173 0-0.227 0.095-0.227 0.32z"></path>
<path d="M2.999 18.679c-0.055 0-0.112 0.001-0.168 0.002v-0.001c-0.125 0-0.226-0.114-0.226-0.256s0.101-0.255 0.226-0.255h0.158l1.594-0.021c0.166 0 0.23 0.125 0.23 0.281 0 0.146-0.092 0.25-0.258 0.26-0.442 0-1.124-0.010-1.558-0.010zM5.367 15.667c0 0.131-0.072 0.227-0.235 0.236h-0.57c-0.28 0-1.067-0.009-2.279-0.009 0 0.472-0.009 0.987-0.009 1.459v2.211l0.009 1.494c0 0.201-0.036 0.341-0.244 0.341-0.226 0-0.262-0.114-0.262-0.35 0-0.166 0.009-0.481 0.009-0.655 0-0.384 0.009-0.769 0.009-1.153l0.009-2.307-0.018-1.118c0-0.21 0.163-0.358 0.353-0.358 0.145 0 0.398 0.009 0.561 0.009 0.588 0 1.194-0.009 2.116-0.018 0.1 0 0.208-0.009 0.317-0.009 0.163 0 0.235 0.114 0.235 0.227z"></path>
<path d="M14.999 11.099c-0.186 0-0.867 0.004-1.417 0.007v-0c-0.114 0-0.206-0.114-0.206-0.256s0.092-0.255 0.205-0.256c0.371-0.004 1.059-0.014 1.392-0.030 0.233 0 0.336 0.054 0.336 0.267 0 0.171-0.069 0.267-0.31 0.267zM15.782 7.82c0 0.114-0.045 0.21-0.205 0.218-0.668 0-1.559-0.009-2.227-0.009h-0.543c-0.009 0.454-0.009 0.891-0.009 1.293l-0.009 2.202c0 0.507-0.027 1.057-0.027 1.564 0.49 0 1.22 0 2.673-0.017 0.071 0 0.134-0.009 0.205-0.009 0.169 0 0.223 0.096 0.223 0.21 0 0.184-0.071 0.271-0.401 0.271h-2.281c-0.784 0-0.909-0.017-0.909-0.498 0-0.122 0.009-0.253 0.018-0.384 0-0.009 0.027-0.751 0.027-2.464 0-0.769 0.009-1.547 0.009-2.324 0-0.271 0.205-0.271 0.534-0.271h0.463c0.606 0 1.488-0.018 2.085-0.018 0.312 0 0.374 0.079 0.374 0.236z"></path>
<path d="M10.932 13.543c0.148 0 0.235-0.078 0.235-0.226l-0.026-2.684c-0.009-1.051 0-1.755 0-2.736 0-0.208-0.061-0.313-0.235-0.313-0.2 0-0.244 0.113-0.244 0.391 0 0.556 0.017 1.842 0.017 2.476l-0.626 0.009c-0.574 0-1.148 0.009-1.714 0.009-0.826 0.009-1.026 0-1.096 0-0.009-1.581-0.009-1.989-0.009-2.623 0-0.156-0.096-0.226-0.226-0.226-0.148 0-0.252 0.078-0.261 0.252l0.035 2.163c0.017 1.086-0.017 2.206-0.017 3.284 0 0.148 0.122 0.226 0.244 0.226 0.113 0 0.252-0.061 0.252-0.235l-0.017-2.38c1.253 0 2.288-0.026 3.427-0.026l0.009 1.52v0.886c0 0.148 0.096 0.235 0.252 0.235z"></path>
<path d="M0.948 7.82c0 0.14 0.071 0.227 0.241 0.227 0.937-0.009 1.482-0.009 1.874-0.009 0 0.611 0.009 1.239 0.009 1.85l-0.009 3.35c0 0.244 0.071 0.305 0.232 0.305 0.214 0 0.268-0.113 0.268-0.349-0.018-2.731-0.045-3.612-0.036-4.545v-0.611h1.75c0.25 0 0.366-0.035 0.366-0.244 0-0.157-0.089-0.209-0.312-0.209-0.188 0-1.482 0.018-2.026 0.018-1.526 0-1.83-0.009-2.107-0.009-0.161 0-0.25 0.105-0.25 0.227z"></path>
<path d="M17.237 0.009c-0.148 0-0.244 0.095-0.244 0.294 0 1.663-0.017 3.352-0.017 5.015 0 0.121-0.009 0.286-0.009 0.407 0 0.147 0.105 0.225 0.235 0.225 0.14 0 0.244-0.078 0.244-0.225v-1.715c0.253-0.268 0.628-0.615 0.933-0.953 0.549 0.676 1.238 1.524 2.032 2.529 0.052 0.069 0.122 0.164 0.192 0.242 0.070 0.087 0.148 0.13 0.235 0.13 0.166 0 0.27-0.121 0.27-0.26 0-0.069-0.035-0.147-0.087-0.199-0.436-0.494-0.68-0.788-0.916-1.074-0.794-0.953-1.143-1.368-1.43-1.68 0.14-0.139 0.27-0.294 0.41-0.442 0.523-0.563 1.186-1.265 1.753-1.931 0.035-0.043 0.052-0.087 0.052-0.13 0-0.13-0.122-0.242-0.253-0.242s-0.166 0.043-0.262 0.156c-0.82 0.961-2.128 2.408-2.922 3.239 0-0.944 0.017-2.113 0.017-3.136 0-0.182-0.070-0.251-0.235-0.251z"></path>
<path d="M14.284 0.447c0.557 0 0.932 0.146 1.215 0.275 0.11 0.051 0.192 0.095 0.31 0.103 0.155 0.008 0.238-0.112 0.238-0.258s-0.183-0.232-0.356-0.31c-0.365-0.155-0.859-0.258-1.334-0.258-1.443 0-2.914 1.17-2.914 3.096 0 1.771 1.361 2.863 2.823 2.863 0.84 0 1.872-0.387 1.872-0.739 0-0.112-0.1-0.232-0.192-0.232-0.146 0-0.155 0.052-0.274 0.112-0.347 0.232-0.877 0.396-1.352 0.396-1.452 0-2.375-1.169-2.375-2.451 0-1.513 1.16-2.597 2.338-2.597z"></path>
<path d="M7.191 3.755c0.427-1.037 0.975-2.422 1.236-3.128 0.226 0.566 0.966 2.596 1.167 3.119-0.836 0.017-1.654 0.017-2.403 0.009zM10.011 3.572c-0.026-0.070-0.061-0.148-0.087-0.218-0.383-0.95-0.923-2.474-1.202-3.145-0.061-0.148-0.131-0.209-0.287-0.209s-0.244 0.078-0.296 0.209c-0.888 2.283-1.010 2.596-1.132 2.884-0.035 0.061-0.444 1.037-0.966 2.274-0.078 0.166-0.122 0.27-0.122 0.366 0 0.166 0.122 0.218 0.261 0.218 0.183 0 0.209-0.157 0.296-0.366 0.122-0.279 0.461-1.194 0.557-1.411h0.932c0.888 0 1.567 0.009 1.802 0.009 0.026 0.087 0.296 0.758 0.575 1.498 0.078 0.183 0.104 0.279 0.296 0.279 0.131 0 0.252-0.113 0.252-0.2 0-0.061-0.026-0.122-0.052-0.192-0.2-0.488-0.514-1.228-0.827-1.995z"></path>
<path d="M3.439 2.808c-0.205 0.003-0.438 0.007-0.661 0.010-0.118 0-0.214 0.092-0.214 0.205s0.096 0.205 0.215 0.205v0l0.761-0.009c0.873 0 1.617 0.245 1.617 1.137 0 0.831-0.735 1.172-1.653 1.172-0.514 0-1.277 0-1.479-0.009 0 0-0.028-4.915-0.037-5.037 0.294-0.017 0.983-0.026 1.295-0.026 0.762 0 1.47 0.289 1.479 1.041s-0.478 1.294-1.323 1.312zM5.258 1.532c-0.009-1.067-0.937-1.53-1.947-1.53-0.303 0-0.955-0.009-1.369 0.026-0.303 0.026-0.441 0.14-0.441 0.315 0 0.201 0.009 0.35 0.009 0.56l0.018 2.405-0.009 2.204c0 0.245 0.064 0.446 0.367 0.446h0.643c0.533 0 1.047 0.017 1.543-0.035 0.955-0.096 1.571-0.665 1.571-1.618 0-0.761-0.487-1.198-1.24-1.382 0.487-0.236 0.863-0.708 0.854-1.39z"></path>
</symbol>
<symbol id="icon-line" viewBox="0 0 32 32">
<title>line</title>
<path d="M14.4 29.6v-28.8c0-0.442 0.358-0.8 0.8-0.8s0.8 0.358 0.8 0.8v28.8c0 0.442-0.358 0.8-0.8 0.8s-0.8-0.358-0.8-0.8z"></path>
</symbol>
<symbol id="icon-chevron-down" viewBox="0 0 32 32">
<title>chevron-down</title>
<path d="M0 9.6c0-0.205 0.078-0.409 0.234-0.566 0.312-0.312 0.819-0.312 1.131 0l13.834 13.834 13.834-13.834c0.312-0.312 0.819-0.312 1.131 0s0.312 0.819 0 1.131l-14.4 14.4c-0.312 0.312-0.819 0.312-1.131 0l-14.4-14.4c-0.156-0.156-0.234-0.361-0.234-0.566z"></path>
</symbol>
<symbol id="icon-chevron-left" viewBox="0 0 32 32">
<title>chevron-left</title>
<path d="M22.4 32c0.205 0 0.409-0.078 0.566-0.234 0.312-0.312 0.312-0.819 0-1.131l-13.834-13.834 13.834-13.834c0.312-0.312 0.312-0.819 0-1.131s-0.819-0.312-1.131 0l-14.4 14.4c-0.312 0.312-0.312 0.819 0 1.131l14.4 14.4c0.156 0.156 0.361 0.234 0.566 0.234z"></path>
</symbol>
<symbol id="icon-chevron-right" viewBox="0 0 32 32">
<title>chevron-right</title>
<path d="M8 32c-0.205 0-0.409-0.078-0.566-0.234-0.312-0.312-0.312-0.819 0-1.131l13.834-13.834-13.834-13.834c-0.312-0.312-0.312-0.819 0-1.131s0.819-0.312 1.131 0l14.4 14.4c0.312 0.312 0.312 0.819 0 1.131l-14.4 14.4c-0.156 0.156-0.361 0.234-0.566 0.234z"></path>
</symbol>
<symbol id="icon-play-circle" viewBox="0 0 32 32">
<title>play-circle</title>
<path d="M15.2 32c-4.060 0-7.877-1.581-10.748-4.452s-4.452-6.688-4.452-10.748c0-4.060 1.581-7.877 4.452-10.748s6.688-4.452 10.748-4.452c4.060 0 7.877 1.581 10.748 4.452s4.452 6.688 4.452 10.748-1.581 7.877-4.452 10.748c-2.871 2.871-6.688 4.452-10.748 4.452zM15.2 3.2c-7.499 0-13.6 6.101-13.6 13.6s6.101 13.6 13.6 13.6c7.499 0 13.6-6.101 13.6-13.6s-6.101-13.6-13.6-13.6z"></path>
<path d="M10.4 25.6c-0.133 0-0.267-0.033-0.388-0.1-0.254-0.141-0.412-0.409-0.412-0.7v-16c0-0.291 0.158-0.559 0.412-0.7s0.565-0.133 0.812 0.021l12.8 8c0.234 0.146 0.376 0.403 0.376 0.678s-0.142 0.532-0.376 0.678l-12.8 8c-0.129 0.081-0.277 0.122-0.424 0.122zM11.2 10.243v13.113l10.491-6.557-10.491-6.557z"></path>
</symbol>
</defs>
</svg>
