<?xml version="1.0" encoding="utf-8"?>
<!-- Generator: Adobe Illustrator 21.0.0, SVG Export Plug-In . SVG Version: 6.00 Build 0)  -->
<svg version="1.1" id="Layer_1" xmlns="http://www.w3.org/2000/svg" xmlns:xlink="http://www.w3.org/1999/xlink" x="0px" y="0px"
	 viewBox="0 0 79.992 9.457" style="enable-background:new 0 0 79.992 9.457;" xml:space="preserve">
<g>
	<path d="M0,0.217h1.799l1.148,5.554C2.986,5.958,3.021,6.187,3.05,6.455S3.102,7.013,3.117,7.33h0.07
		c0.016-0.371,0.034-0.697,0.056-0.979s0.044-0.482,0.067-0.604l1.043-5.531h1.775L4.236,9.24H2.027L0,0.217z M0.357,0.492
		l1.91,8.472h1.729l1.775-8.472H4.605L3.211,7.535H3.082L1.559,0.492H0.357z"/>
	<path d="M8.543,0.217h2.256L12.85,9.24h-1.811l-0.445-2.268H8.66L8.227,9.24H6.51L8.543,0.217z M8.766,0.492L6.873,8.964h1.113
		L8.42,6.697h2.414l0.439,2.268h1.213L10.57,0.492H8.766z M9.551,1.441h0.164l0.984,4.453H8.59L9.551,1.441z M9.633,1.588
		c-0.02,0.297-0.048,0.584-0.085,0.861S9.463,3.002,9.404,3.275l-0.48,2.343h1.43L9.861,3.281L9.85,3.229
		C9.729,2.639,9.656,2.092,9.633,1.588z"/>
	<path d="M13.734,0.217h1.729l1.945,4.64c0.086,0.219,0.176,0.477,0.27,0.773s0.184,0.611,0.27,0.943h0.047
		c-0.055-0.34-0.1-0.662-0.135-0.969s-0.059-0.572-0.07-0.795V0.217h1.564V9.24h-1.717l-2.004-4.834
		c-0.082-0.191-0.163-0.421-0.243-0.691s-0.159-0.568-0.237-0.896h-0.047c0.059,0.371,0.105,0.713,0.141,1.025
		s0.055,0.574,0.059,0.785V9.24h-1.57V0.217z M14.033,0.492v8.472h0.996V2.631h0.135l2.672,6.333h1.225V0.492h-0.996v6.24h-0.117
		l-2.689-6.24H14.033z"/>
	<path d="M20.889,0.217h4.635v1.5h-2.965v2.086h2.76v1.429h-2.76v2.484h3.035V9.24h-4.705V0.217z M21.188,0.492v8.472h4.107V7.992
		h-3.023V4.957h2.76V4.09h-2.76V1.441h2.947V0.492H21.188z"/>
	<path d="M31.857,2.977h-1.594V2.713c0-0.477-0.081-0.819-0.243-1.028s-0.425-0.313-0.788-0.313c-0.273,0-0.486,0.078-0.639,0.234
		s-0.229,0.377-0.229,0.662c0,0.379,0.332,0.789,0.996,1.23l0.059,0.041l0.926,0.627c0.668,0.441,1.117,0.855,1.348,1.242
		s0.346,0.881,0.346,1.482c0,0.832-0.238,1.469-0.715,1.908s-1.17,0.658-2.08,0.658c-0.867,0-1.519-0.236-1.954-0.709
		s-0.653-1.18-0.653-2.121c0-0.059,0.002-0.127,0.006-0.205s0.012-0.195,0.023-0.352h1.676v0.744c0,0.457,0.072,0.783,0.217,0.979
		s0.381,0.293,0.709,0.293c0.355,0,0.626-0.09,0.812-0.27s0.278-0.445,0.278-0.797c0-0.273-0.065-0.506-0.196-0.699
		s-0.409-0.441-0.835-0.742l-0.861-0.609c-0.742-0.516-1.214-0.939-1.415-1.271s-0.302-0.756-0.302-1.271
		c0-0.758,0.225-1.352,0.674-1.781S28.49,0,29.279,0c0.836,0,1.477,0.227,1.922,0.68s0.668,1.107,0.668,1.963
		c0,0.004,0,0.021,0,0.053C31.861,2.801,31.857,2.895,31.857,2.977z M31.582,2.689v-0.1c0-0.75-0.197-1.323-0.592-1.72
		s-0.965-0.595-1.711-0.595c-0.707,0-1.256,0.188-1.646,0.565s-0.586,0.905-0.586,1.585c0,0.461,0.086,0.837,0.258,1.128
		s0.613,0.686,1.324,1.186l0.879,0.609c0.461,0.32,0.766,0.598,0.914,0.83s0.223,0.512,0.223,0.84c0,0.43-0.121,0.762-0.363,0.994
		s-0.584,0.348-1.025,0.348c-0.406,0-0.708-0.123-0.905-0.369s-0.296-0.623-0.296-1.131V6.65V6.345h-1.102
		c-0.008,0.051-0.012,0.104-0.012,0.156s0,0.133,0,0.242c0,0.805,0.193,1.41,0.58,1.816s0.965,0.609,1.734,0.609
		c0.828,0,1.451-0.189,1.869-0.57s0.627-0.951,0.627-1.709c0-0.555-0.104-1.006-0.313-1.354s-0.624-0.729-1.245-1.143l-0.938-0.626
		L29.227,3.75c-0.766-0.516-1.148-1.01-1.148-1.482c0-0.355,0.104-0.641,0.313-0.855s0.489-0.322,0.841-0.322
		c0.449,0,0.783,0.132,1.002,0.396s0.328,0.665,0.328,1.204H31.582z"/>
	<path d="M38.432,2.977h-1.594V2.713c0-0.477-0.081-0.819-0.243-1.028s-0.425-0.313-0.788-0.313c-0.273,0-0.486,0.078-0.639,0.234
		s-0.229,0.377-0.229,0.662c0,0.379,0.332,0.789,0.996,1.23l0.059,0.041l0.926,0.627c0.668,0.441,1.117,0.855,1.348,1.242
		s0.346,0.881,0.346,1.482c0,0.832-0.238,1.469-0.715,1.908s-1.17,0.658-2.08,0.658c-0.867,0-1.519-0.236-1.954-0.709
		s-0.653-1.18-0.653-2.121c0-0.059,0.002-0.127,0.006-0.205s0.012-0.195,0.023-0.352h1.676v0.744c0,0.457,0.072,0.783,0.217,0.979
		s0.381,0.293,0.709,0.293c0.355,0,0.626-0.09,0.812-0.27s0.278-0.445,0.278-0.797c0-0.273-0.065-0.506-0.196-0.699
		S36.326,5.878,35.9,5.578l-0.861-0.609c-0.742-0.516-1.214-0.939-1.415-1.271s-0.302-0.756-0.302-1.271
		c0-0.758,0.225-1.352,0.674-1.781S35.064,0,35.854,0c0.836,0,1.477,0.227,1.922,0.68s0.668,1.107,0.668,1.963
		c0,0.004,0,0.021,0,0.053C38.436,2.801,38.432,2.895,38.432,2.977z M38.156,2.689v-0.1c0-0.75-0.197-1.323-0.592-1.72
		S36.6,0.275,35.854,0.275c-0.707,0-1.256,0.188-1.646,0.565s-0.586,0.905-0.586,1.585c0,0.461,0.086,0.837,0.258,1.128
		s0.613,0.686,1.324,1.186l0.879,0.609c0.461,0.32,0.766,0.598,0.914,0.83s0.223,0.512,0.223,0.84c0,0.43-0.121,0.762-0.363,0.994
		s-0.584,0.348-1.025,0.348c-0.406,0-0.708-0.123-0.905-0.369s-0.296-0.623-0.296-1.131V6.65V6.345h-1.102
		c-0.008,0.051-0.012,0.104-0.012,0.156s0,0.133,0,0.242c0,0.805,0.193,1.41,0.58,1.816s0.965,0.609,1.734,0.609
		c0.828,0,1.451-0.189,1.869-0.57s0.627-0.951,0.627-1.709c0-0.555-0.104-1.006-0.313-1.354s-0.624-0.729-1.245-1.143L35.83,3.768
		L35.801,3.75c-0.766-0.516-1.148-1.01-1.148-1.482c0-0.355,0.104-0.641,0.313-0.855s0.489-0.322,0.841-0.322
		c0.449,0,0.783,0.132,1.002,0.396s0.328,0.665,0.328,1.204H38.156z"/>
	<path d="M41.35,0.217h2.256l2.051,9.023h-1.811L43.4,6.972h-1.934L41.033,9.24h-1.717L41.35,0.217z M41.572,0.492L39.68,8.964
		h1.113l0.434-2.268h2.414l0.439,2.268h1.213l-1.916-8.472H41.572z M42.357,1.441h0.164l0.984,4.453h-2.109L42.357,1.441z
		 M42.439,1.588c-0.02,0.297-0.048,0.584-0.085,0.861s-0.085,0.553-0.144,0.826l-0.48,2.343h1.43l-0.492-2.337l-0.012-0.053
		C42.535,2.639,42.463,2.092,42.439,1.588z"/>
	<path d="M54.721,3.012h-1.629c0-0.043,0.002-0.085,0.006-0.126s0.006-0.063,0.006-0.067c0-0.5-0.079-0.871-0.237-1.113
		s-0.403-0.363-0.735-0.363c-0.406,0-0.682,0.166-0.826,0.498s-0.217,1.23-0.217,2.695c0,1.652,0.069,2.658,0.208,3.016
		s0.413,0.535,0.823,0.535c0.383,0,0.646-0.139,0.791-0.418s0.217-0.828,0.217-1.645h1.635v0.299c0,1.07-0.217,1.861-0.65,2.371
		s-1.105,0.764-2.016,0.764c-0.508,0-0.934-0.078-1.277-0.234s-0.633-0.402-0.867-0.738c-0.215-0.305-0.367-0.729-0.457-1.271
		s-0.135-1.406-0.135-2.59c0-0.96,0.036-1.706,0.108-2.235s0.188-0.933,0.349-1.21c0.23-0.41,0.528-0.709,0.894-0.896
		S51.537,0,52.096,0c0.914,0,1.578,0.237,1.992,0.712S54.713,1.953,54.721,3.012z M54.439,2.736
		c-0.055-0.895-0.259-1.528-0.612-1.901s-0.927-0.56-1.72-0.56c-0.926,0-1.566,0.287-1.922,0.861s-0.533,1.736-0.533,3.486
		c0,0.969,0.029,1.719,0.088,2.248s0.152,0.918,0.281,1.168c0.199,0.395,0.463,0.682,0.791,0.861s0.756,0.27,1.283,0.27
		c0.816,0,1.417-0.223,1.802-0.67s0.577-1.148,0.577-2.102v-0.1H53.42c-0.016,0.754-0.122,1.287-0.319,1.598
		s-0.524,0.465-0.981,0.465c-0.512,0-0.859-0.201-1.043-0.604S50.801,6.3,50.801,4.593c0-1.585,0.096-2.57,0.287-2.953
		s0.543-0.574,1.055-0.574c0.402,0,0.707,0.138,0.914,0.413s0.324,0.694,0.352,1.257H54.439z"/>
	<path d="M58.863,0c1.094,0,1.855,0.328,2.285,0.984s0.645,1.904,0.645,3.744c0,1.84-0.215,3.088-0.645,3.744
		s-1.191,0.984-2.285,0.984s-1.855-0.328-2.285-0.984s-0.645-1.904-0.645-3.744c0-1.839,0.215-3.087,0.645-3.744S57.77,0,58.863,0z
		 M58.875,0.275c-1,0-1.689,0.301-2.068,0.902s-0.568,1.785-0.568,3.55c0,1.762,0.188,2.943,0.565,3.543s1.067,0.898,2.071,0.898
		c1,0,1.688-0.297,2.065-0.893s0.565-1.779,0.565-3.549c0-1.773-0.188-2.958-0.565-3.556S59.875,0.275,58.875,0.275z M58.875,1.055
		c0.57,0,0.963,0.217,1.178,0.65s0.322,1.441,0.322,3.023c0,1.574-0.107,2.578-0.322,3.012s-0.607,0.65-1.178,0.65
		c-0.574,0-0.97-0.217-1.187-0.65s-0.325-1.438-0.325-3.012c0-1.582,0.108-2.589,0.325-3.023S58.301,1.055,58.875,1.055z
		 M58.863,1.33c-0.465,0-0.783,0.188-0.955,0.562s-0.258,1.32-0.258,2.835c0,1.5,0.087,2.439,0.261,2.816s0.495,0.564,0.964,0.564
		c0.461,0,0.776-0.186,0.946-0.559s0.255-1.279,0.255-2.717c0-1.578-0.086-2.556-0.258-2.935S59.328,1.33,58.863,1.33z"/>
	<path d="M62.174,0.217h1.863l1.365,3.445l1.348-3.445h1.811l-2.326,5.197V9.24h-1.693V5.414L62.174,0.217z M62.619,0.492
		l2.221,4.857v3.615h1.107V5.349l2.168-4.857h-1.16l-1.553,3.902l-1.57-3.902H62.619z"/>
	<path d="M69.434,0.217h1.682v7.488h3.035V9.24h-4.717V0.217z M69.732,0.492v8.472h4.131V7.98h-3.035V0.492H69.732z"/>
	<path d="M75.287,0.217h4.635v1.5h-2.965v2.086h2.76v1.429h-2.76v2.484h3.035V9.24h-4.705V0.217z M75.586,0.492v8.472h4.107V7.992
		H76.67V4.957h2.76V4.09h-2.76V1.441h2.947V0.492H75.586z"/>
</g>
</svg>
