<?xml version="1.0" encoding="utf-8"?>
<!-- Generator: Adobe Illustrator 21.0.0, SVG Export Plug-In . SVG Version: 6.00 Build 0)  -->
<svg version="1.1" id="Layer_1" xmlns="http://www.w3.org/2000/svg" xmlns:xlink="http://www.w3.org/1999/xlink" x="0px" y="0px"
	 viewBox="0 0 32 32" style="enable-background:new 0 0 32 32;" xml:space="preserve">
<style type="text/css">
	.st0{fill:#1D1D1B;}
</style>
<g>
	<path class="st0" d="M7.8,19.2c-1.7,0-3.2-1.2-3.2-3.2s1.5-3.1,3.3-3.1c0.8,0,1.6,0.2,2.1,0.6v1.1c-0.5-0.4-1.1-0.7-2-0.7
		c-1.3,0-2.1,0.8-2.1,2.2c0,1.4,0.9,2.2,2.1,2.2c0.5,0,0.9-0.1,1.2-0.3v-1.2H8.1v-0.9h2.2v2.7C10,18.7,9,19.2,7.8,19.2z"/>
	<path class="st0" d="M14,19.1c-0.4,0-0.7-0.3-0.7-0.7c0-0.4,0.3-0.7,0.7-0.7c0.4,0,0.7,0.3,0.7,0.7C14.7,18.8,14.4,19.1,14,19.1z"
		/>
	<path class="st0" d="M21.8,19v-2.7h-2.8V19h-1.2v-6h1.2v2.3h2.8V13H23v6H21.8z"/>
	<path class="st0" d="M26.7,19.1c-0.4,0-0.7-0.3-0.7-0.7c0-0.4,0.3-0.7,0.7-0.7s0.7,0.3,0.7,0.7C27.4,18.8,27.1,19.1,26.7,19.1z"/>
</g>
</svg>
